<svg width="476" height="520" viewBox="0 0 476 520" fill="none" xmlns="http://www.w3.org/2000/svg">
<path d="M56.0394 73.8076V51.7315C56.0394 48.7125 55.4733 47.203 54.3412 47.203C53.2091 47.203 52.643 48.7125 52.643 51.7315V67.581C52.643 69.6565 52.7374 71.449 52.9261 72.9585C53.3034 74.2793 54.1525 75.6944 55.4733 77.2039C56.9828 78.5247 59.247 80.1285 62.2659 82.0154C65.2849 83.9022 69.5303 86.3551 75.0022 89.3741L82.6439 93.6195C87.5497 96.261 91.5121 99.1857 94.531 102.393C97.7387 105.601 100.192 109.375 101.89 113.714C103.777 118.054 105.097 123.243 105.852 129.281C106.607 135.13 106.984 142.206 106.984 150.508V154.187C106.984 171.169 102.361 184.188 93.1159 193.245C83.8703 202.302 70.6624 206.83 53.4921 206.83C36.5105 206.83 23.5856 202.396 14.7174 193.528C6.03791 184.471 1.69816 171.358 1.69816 154.187V136.074H52.643V158.15C52.643 161.169 53.2091 162.678 54.3412 162.678C55.4733 162.678 56.0394 161.263 56.0394 158.433V141.734C56.0394 139.659 55.8507 137.96 55.4733 136.64C55.2846 135.319 54.5299 133.998 53.2091 132.677C52.077 131.356 50.0958 129.847 47.2655 128.149C44.6239 126.451 40.8502 124.186 35.9444 121.356L26.8876 116.262C21.9818 113.431 17.8307 110.412 14.4344 107.205C11.2267 103.808 8.6795 99.8461 6.79265 95.3176C4.9058 90.7892 3.58501 85.506 2.83027 79.4681C2.07553 73.4302 1.69816 66.2602 1.69816 57.9581V55.4108C1.69816 38.2405 6.13225 25.2213 15.0004 16.3531C23.8686 7.4849 36.6992 3.05081 53.4921 3.05081C70.6624 3.05081 83.8703 7.57924 93.1159 16.6361C102.361 25.693 106.984 38.6179 106.984 55.4108V73.8076H56.0394ZM199.541 5.88108L211.994 204H161.049V163.244H157.653V204H106.708L120.293 5.88108H199.541ZM161.049 119.092V94.7516H157.653V119.092H161.049ZM253.285 5.88108V80.3172H256.681V5.88108H307.626L279.889 150.225V204H228.945V150.225L202.34 5.88108H253.285ZM106.984 265.881V464H56.0394V384.469H52.643V464H1.69816V265.881H52.643V340.317H56.0394V265.881H106.984ZM161.266 265.881V464H110.321V265.881H161.266ZM215.715 265.881V294.184L210.055 412.206H170.431L164.77 294.184V265.881H215.715ZM165.902 439.66C165.902 422.678 174.016 414.187 190.243 414.187C198.168 414.187 204.205 416.451 208.357 420.98C212.508 425.32 214.583 431.735 214.583 440.226C214.583 448.339 212.508 454.566 208.357 458.906C204.205 463.245 198.168 465.415 190.243 465.415C174.016 465.415 165.902 456.83 165.902 439.66Z" fill="white"/>
<g clip-path="url(#clip0_1216_226)">
<mask id="mask0_1216_226" style="mask-type:luminance" maskUnits="userSpaceOnUse" x="270" y="260" width="206" height="207">
<path d="M475.998 260.806H270.16V466.644H475.998V260.806Z" fill="white"/>
</mask>
<g mask="url(#mask0_1216_226)">
<path fill-rule="evenodd" clip-rule="evenodd" d="M321.62 260.806H475.998V312.265V415.184L424.539 466.644V312.265H270.16L321.62 260.806ZM270.16 430.691V363.725H337.126L270.16 430.691ZM373.079 466.644H306.982L373.079 400.547V466.644Z" fill="url(#paint0_linear_1216_226)"/>
</g>
</g>
<defs>
<linearGradient id="paint0_linear_1216_226" x1="270.16" y1="363.725" x2="475.998" y2="363.725" gradientUnits="userSpaceOnUse">
<stop stop-color="#00D1FF"/>
<stop offset="1" stop-color="#FF7EB3"/>
</linearGradient>
<clipPath id="clip0_1216_226">
<rect width="205.838" height="205.838" fill="white" transform="translate(270.164 260.806)"/>
</clipPath>
</defs>
</svg>
